name C:\Users\u0101727\Documents\MyRepositories\upper-imu-dc\Results\main_mocap_tracking\Case_10\FLX01_angularVelocities_groundFrame.mot
datacolumns 4
datarows 70
range 5.01000000 5.70000000
endheader 
time	radius_imu_x	radius_imu_y	radius_imu_z	
          5.01000000	          0.69609053	         -0.00310737	         -1.23747346	
          5.02000000	          0.59092901	          0.04502256	         -1.25764064	
          5.03000000	          0.45633344	          0.10526440	         -1.28934162	
          5.04000000	          0.30524221	          0.17468049	         -1.32747695	
          5.05000000	          0.16464599	          0.24535246	         -1.36176865	
          5.06000000	          0.06486766	          0.30694291	         -1.38078060	
          5.07000000	          0.02724286	          0.35068897	         -1.37659277	
          5.08000000	          0.05641589	          0.37275260	         -1.34776364	
          5.09000000	          0.14057779	          0.37522602	         -1.29925072	
          5.10000000	          0.25826387	          0.36456083	         -1.23977015	
          5.11000000	          0.38685163	          0.34877238	         -1.17846240	
          5.12000000	          0.50784106	          0.33534533	         -1.12279963	
          5.13000000	          0.60734947	          0.33084092	         -1.07838868	
          5.14000000	          0.67497092	          0.34123798	         -1.04946910	
          5.15000000	          0.70548738	          0.37104208	         -1.03833346	
          5.16000000	          0.70366752	          0.42069637	         -1.04351272	
          5.17000000	          0.68709975	          0.48439485	         -1.05863655	
          5.18000000	          0.68190973	          0.55106764	         -1.07395530	
          5.19000000	          0.71196016	          0.60901213	         -1.08031395	
          5.20000000	          0.78756907	          0.65176882	         -1.07329377	
          5.21000000	          0.89961490	          0.68223895	         -1.05534893	
          5.22000000	          1.02105321	          0.71341870	         -1.03525768	
          5.23000000	          1.11480876	          0.76551026	         -1.02531904	
          5.24000000	          1.14565071	          0.85998130	         -1.03713831	
          5.25000000	          1.09244377	          1.01212994	         -1.07724339	
          5.26000000	          0.95595270	          1.22498340	         -1.14426078	
          5.27000000	          0.75856640	          1.48736922	         -1.22901030	
          5.28000000	          0.53648108	          1.77688315	         -1.31736218	
          5.29000000	          0.32840433	          2.06610167	         -1.39439728	
          5.30000000	          0.16535449	          2.32944838	         -1.44822669	
          5.31000000	          0.06476786	          2.54833637	         -1.47231241	
          5.32000000	          0.02986901	          2.71324949	         -1.46589749	
          5.33000000	          0.05294012	          2.82293530	         -1.43292190	
          5.34000000	          0.12006779	          2.88191608	         -1.38017463	
          5.35000000	          0.21531537	          2.89771402	         -1.31542578	
          5.36000000	          0.32337197	          2.87873080	         -1.24604211	
          5.37000000	          0.43083585	          2.83297224	         -1.17821574	
          5.38000000	          0.52674536	          2.76733595	         -1.11666397	
          5.39000000	          0.60287293	          2.68713750	         -1.06456737	
          5.40000000	          0.65411595	          2.59556297	         -1.02354772	
          5.41000000	          0.67915791	          2.49292320	         -0.99350874	
          5.42000000	          0.68094934	          2.37600503	         -0.97255699	
          5.43000000	          0.66644057	          2.23812467	         -0.95719628	
          5.44000000	          0.64521019	          2.07038093	         -0.94296938	
          5.45000000	          0.62735894	          1.86374546	         -0.92545661	
          5.46000000	          0.62115962	          1.61157973	         -0.90147137	
          5.47000000	          0.63190066	          1.31117689	         -0.86973276	
          5.48000000	          0.66073944	          0.96589480	         -0.83250630	
          5.49000000	          0.70726547	          0.58121438	         -0.78981093	
          5.50000000	          0.76308416	          0.16702483	         -0.75011542	
          5.51000000	          0.82972700	         -0.26130687	         -0.72273639	
          5.52000000	          0.90456436	         -0.70187020	         -0.69797327	
          5.53000000	          0.98012794	         -1.14861911	         -0.67613027	
          5.54000000	          1.05624946	         -1.57240770	         -0.66922483	
          5.55000000	          1.12566939	         -1.98042375	         -0.66984382	
          5.56000000	          1.17168466	         -2.35771503	         -0.68537063	
          5.57000000	          1.18185265	         -2.68325049	         -0.72654492	
          5.58000000	          1.18090986	         -2.97394384	         -0.75673487	
          5.59000000	          1.17199554	         -3.22570812	         -0.77737051	
          5.60000000	          1.15025802	         -3.42413631	         -0.79505869	
          5.61000000	          1.11957314	         -3.57386878	         -0.80680902	
          5.62000000	          1.08833802	         -3.68968180	         -0.80585863	
          5.63000000	          1.07390988	         -3.80604234	         -0.77683907	
          5.64000000	          1.05576639	         -3.88222691	         -0.75271920	
          5.65000000	          0.99206142	         -3.87269797	         -0.78658971	
          5.66000000	          0.93751255	         -3.85160710	         -0.81160590	
          5.67000000	          0.90216944	         -3.85063031	         -0.81676131	
          5.68000000	          0.86756174	         -3.82874610	         -0.82175062	
          5.69000000	          0.82639205	         -3.76929628	         -0.83459367	
          5.70000000	          0.77106155	         -3.65266310	         -0.86338049	
